Coordinates
version=1
nRows=17
nColumns=33
inDegrees=yes

Units are S.I. units (second, meters, Newtons, ...)
Angles are in degrees.

endheader
time	ground_thorax_rot_x	ground_thorax_rot_y	ground_thorax_rot_z	ground_thorax_tx	ground_thorax_ty	ground_thorax_tz	clav_prot_r	clav_elev_r	scapula_abduction_r	scapula_elevation_r	scapula_upward_rot_r	scapula_winging_r	shoulder_elv_r	plane_of_elev_r	axial_rot_r	elbow_flexion_r	pro_sup_r	wrist_flex_r	wrist_dev_r	clav_prot_l	clav_elev_l	scapula_abduction_l	scapula_elevation_l	scapula_upward_rot_l	scapula_winging_l	shoulder_elv_l	plane_of_elev_l	axial_rot_l	elbow_flexion_l	pro_sup_l	wrist_flex_l	wrist_dev_l
      5.90000000	     41.04630462	     11.86243027	     12.63575628	    -86.59669371	    776.63361008	     19.62568285	     18.16257206	     39.50390734	     44.21469742	     41.87352686	    -31.59381171	   2078.68915274	  -3714.63620684	    144.96503754	    179.99999979	   1805.93514551	     52.36276225	     20.55000040	     13.34663614	      5.96377565	    -45.00000000	    -40.15672096	     45.00000000	    -40.66894470	  -2439.19140760	   -457.84631265	    134.18858411	   -179.99999979	    368.24372226	     40.61605272	      8.97973669	    -19.67312947
      5.91000000	     41.07167624	     11.68872024	     12.21791304	    -85.02006373	    776.71810423	     19.87993129	     18.24472189	     39.49376768	     44.42239815	     41.62569250	    -30.93370436	   2078.44561044	  -3714.78887782	    145.01529968	    179.99999979	   1805.83308488	     52.35184682	     20.47025218	     13.28415702	      5.80714668	    -45.00000000	    -40.40511639	     45.00000000	    -39.90514446	  -2439.28267856	   -457.98990228	    134.17638991	   -179.99999979	    368.25317288	     40.46047841	      8.95064077	    -19.64954126
      5.92000000	     41.10693335	     11.14633488	     11.49864334	    -83.62192784	    776.82853184	     20.13816658	     18.53594620	     39.31327382	     45.00000000	     41.24239449	    -29.82958740	   2077.98208654	  -3715.07095274	    145.09416220	    179.99999979	   1805.51063411	     52.22225861	     20.37686572	     13.29160558	      5.49432902	    -45.00000000	    -41.02563476	     45.00000000	    -38.59433754	  -2439.30061193	   -458.24715909	    134.31967599	   -179.99999979	    368.36577240	     40.15712191	      8.92980072	    -19.65133603
      5.93000000	     41.00653096	     10.74983116	     10.67527069	    -82.38160892	    776.95767199	     20.39900780	     18.46519938	     39.23914058	     45.00000000	     40.80084208	    -28.45911819	   2077.71823577	  -3715.21300872	    145.18928780	    179.99999979	   1805.42516952	     51.90959820	     20.31480438	     13.29039283	      5.50065854	    -45.00000000	    -41.81082043	     45.00000000	    -36.89115514	  -2439.18247519	   -458.52530513	    134.39557707	   -179.99999979	    368.32247628	     39.75403839	      8.96254097	    -19.60692479
      5.94000000	     40.91838051	     10.53729821	     10.22467509	    -81.27831217	    777.10197243	     20.65897005	     18.16103875	     39.26379862	     45.00000000	     40.52260950	    -27.66901980	   2077.63601852	  -3715.25273149	    145.28511695	    179.99999979	   1805.40919261	     51.48335971	     20.24605051	     13.30127000	      5.66874791	    -45.00000000	    -42.30443269	     45.00000000	    -35.84011406	  -2439.08812538	   -458.75938608	    134.36278651	   -179.99999979	    368.21690307	     39.33689058	      9.01472224	    -19.54459490
      5.95000000	     40.87352070	     10.34773204	      9.77980926	    -80.29086074	    777.26151030	     20.91236853	     18.02221159	     39.23988410	     45.00000000	     40.31187930	    -26.88402160	   2077.53420707	  -3715.32774426	    145.36309496	    179.99999979	   1805.38892758	     50.92908088	     20.18430977	     13.34297631	      5.70747109	    -45.00000000	    -42.81078231	     45.00000000	    -34.84741832	  -2439.03205678	   -458.92947756	    134.38723918	   -179.99999979	    368.14736749	     38.86876007	      9.07595104	    -19.49747302
      5.96000000	     40.80553957	     10.13950025	      9.36075100	    -79.40069883	    777.43852638	     21.15610893	     17.83447607	     39.25914168	     45.00000000	     40.10184952	    -26.14559269	   2077.47953694	  -3715.40075865	    145.46921027	    179.99999979	   1805.39130359	     50.28969534	     20.13148212	     13.40734214	      5.75894926	    -45.00000000	    -43.27512686	     45.00000000	    -33.93427694	  -2438.95414271	   -459.09968788	    134.40790123	   -179.99999979	    368.08233796	     38.38490800	      9.13903069	    -19.44749148
      5.97000000	     40.75537153	      9.89155043	      8.92311839	    -78.59388348	    777.63062614	     21.38267625	     17.74068562	     39.22142101	     45.00000000	     39.91424805	    -25.36626072	   2077.37030771	  -3715.49806880	    145.48703362	    179.99999979	   1805.32090806	     49.59569155	     20.07042865	     13.50504041	      5.76252816	    -45.00000000	    -43.78653398	     45.00000000	    -32.98818463	  -2438.86343950	   -459.25680427	    134.45045962	   -179.99999979	    368.09291090	     37.87378254	      9.19647397	    -19.41671098
      5.98000000	     40.68960785	      9.66154847	      8.43432499	    -77.87561617	    777.81713071	     21.57578006	     17.62674831	     39.18085120	     45.00000000	     39.71239975	    -24.59848725	   2077.25646351	  -3715.58372049	    145.52694822	    179.99999979	   1805.27884282	     48.92930300	     20.02146010	     13.58289510	      5.79346531	    -45.00000000	    -44.37176259	     45.00000000	    -31.94600123	  -2438.75059215	   -459.41461510	    134.48682283	   -179.99999979	    368.11228866	     37.36778133	      9.25656947	    -19.38986781
      5.99000000	     40.64676272	      9.50461480	      8.16482581	    -77.22347080	    778.01177842	     21.74692156	     17.38140568	     39.21119063	     45.00000000	     39.63831047	    -24.06065979	   2077.36620991	  -3715.63558139	    145.77034409	    179.99999979	   1805.43990578	     48.35329274	     20.03577322	     13.60138665	      5.85776356	    -45.00000000	    -44.71985464	     45.00000000	    -31.25127422	  -2438.70624001	   -459.53672717	    134.56663088	   -179.99999979	    368.18811006	     36.96082792	      9.29857570	    -19.39696420
      6.00000000	     40.69854855	      9.43314634	      7.93568008	    -76.65183328	    778.20473245	     21.88990432	     17.27852629	     39.12657153	     45.00000000	     39.67820680	    -23.63550216	   2077.63967181	  -3715.55122581	    145.94508309	    179.99999979	   1805.17681656	     47.97469071	     20.00525675	     13.66148777	      5.81459680	    -45.00000000	    -44.98340185	     45.00000000	    -30.81492101	  -2438.89014305	   -459.65278832	    134.68063793	   -179.99999979	    368.23201354	     36.65965142	      9.35149805	    -19.43038205
      6.01000000	     40.53183592	      9.12664313	      7.56153824	    -76.14468970	    778.40296584	     22.01025047	     17.37162037	     39.20909640	     45.00000000	     39.35286409	    -23.29151995	   2077.22780278	  -3715.72342029	    145.53685923	    179.99999979	   1805.21779449	     47.64177324	     19.96633624	     13.71153133	      5.84677986	    -45.00000000	    -45.00000000	     45.00000000	    -30.19138761	  -2438.77538304	   -459.71360427	    134.46200178	   -179.99999979	    368.14761853	     36.39821681	      9.34888568	    -19.34239732
      6.02000000	     40.63974452	      9.13542130	      7.50481437	    -75.73239590	    778.59355516	     22.10084805	     17.21210761	     39.09680131	     45.00000000	     39.47759414	    -22.81951256	   2077.66844120	  -3715.62594254	    146.04387150	    179.99999979	   1805.31494799	     47.39175777	     20.06928575	     13.67464565	      5.59930982	    -45.00000000	    -45.00000000	     45.00000000	    -29.93409486	  -2439.13822630	   -459.68332458	    134.73843981	   -179.99999979	    368.26707619	     36.17260429	      9.41704960	    -19.43975859
      6.03000000	     40.56915131	      8.98480162	      7.34488743	    -75.39097406	    778.78466565	     22.16910792	     17.24613425	     39.19598533	     45.00000000	     39.30618271	    -22.68257665	   2077.33637173	  -3715.76280254	    145.51325358	    179.99999979	   1805.28223619	     47.29074686	     20.01998490	     13.72108809	      5.59749679	    -45.00000000	    -45.00000000	     45.00000000	    -29.69230009	  -2438.95901602	   -459.71951289	    134.45213257	   -179.99999979	    368.21803395	     35.97643412	      9.37139365	    -19.33710117
      6.04000000	     40.61592668	      8.99297633	      7.33434823	    -75.13397081	    778.96833776	     22.21385385	     17.13168844	     39.07976954	     45.00000000	     39.42272476	    -22.53342576	   2077.77451097	  -3715.62230955	    145.95510137	    179.99999979	   1805.47403056	     47.25067471	     20.18246656	     13.64567032	      5.47357955	    -45.00000000	    -45.00000000	     45.00000000	    -29.62886710	  -2439.28144632	   -459.66561704	    134.69654795	   -179.99999979	    368.39345686	     35.82499727	      9.41141810	    -19.45379417
      6.05000000	     40.54636309	      8.90773713	      7.27126908	    -74.95873872	    779.14339029	     22.23716420	     17.20897053	     39.16258592	     45.00000000	     39.21939174	    -22.44859028	   2077.42105763	  -3715.79490832	    145.43213066	    179.99999979	   1805.41329181	     47.36896163	     20.13008197	     13.67253631	      5.45062819	    -45.00000000	    -45.00000000	     45.00000000	    -29.46766738	  -2439.07441509	   -459.74920179	    134.40687624	   -179.99999979	    368.30743416	     35.71480686	      9.35980512	    -19.34157475
      6.06000000	     40.58613904	      8.87604432	      7.29832396	    -74.87001287	    779.30153976	     22.24021685	     17.08737346	     39.04657352	     45.00000000	     39.33474786	    -22.36573284	   2077.84993673	  -3715.63635102	    145.83577115	    179.99999979	   1805.66280285	     47.50230364	     20.33362891	     13.57789703	      5.31996085	    -45.00000000	    -45.00000000	     45.00000000	    -29.46961673	  -2439.36573203	   -459.65453642	    134.65626454	   -179.99999979	    368.45978055	     35.62681752	      9.39810568	    -19.45721761
